<svg width="156" height="34" viewBox="0 0 156 34" fill="none" xmlns="http://www.w3.org/2000/svg">
<path d="M33.9445 17C31.4495 19.813 27.8238 21.5833 23.7883 21.5833C19.7528 21.5833 16.127 19.813 13.6321 17C16.127 14.1869 19.7528 12.4166 23.7883 12.4166C27.8238 12.4166 31.4495 14.1869 33.9445 17Z" fill="white"/>
<path fill-rule="evenodd" clip-rule="evenodd" d="M10.1625 26.1666C10.1625 18.5727 16.2629 12.4166 23.7882 12.4166C19.7527 12.4166 16.127 14.1869 13.632 17C16.127 19.813 19.7528 21.5833 23.7882 21.5833C27.8237 21.5833 31.4495 19.813 33.9444 17C36.102 19.4326 37.414 22.645 37.414 26.1666V31.3611C37.414 32.0361 36.8717 32.5833 36.2028 32.5833H11.3737C10.7047 32.5833 10.1625 32.0361 10.1625 31.3611V26.1666ZM33.9444 17C33.9444 17 33.9444 17 33.9444 17V17Z" fill="#7CD4FD"/>
<path fill-rule="evenodd" clip-rule="evenodd" d="M18.6774 20.5833C16.7318 19.7884 15.0096 18.5531 13.632 17C16.127 14.1869 19.7528 12.4166 23.7882 12.4166C27.8237 12.4166 31.4495 14.1869 33.9444 16.9999C33.9444 16.9999 33.9444 16.9999 33.9444 16.9999C36.102 14.5673 37.414 11.3549 37.414 7.83329V2.63885C37.414 1.96384 36.8717 1.41663 36.2028 1.41663L11.3737 1.41663C10.7047 1.41663 10.1625 1.96383 10.1625 2.63885L10.1625 7.83329C10.1625 13.6033 13.6845 18.5432 18.6774 20.5833Z" fill="#0BA5EC"/>
<path d="M58.6969 10.2396V24.0833H55.9453V18.1928H50.0687V24.0833H47.3171V10.2396H50.0687V15.9318H55.9453V10.2396H58.6969Z" fill="#101828"/>
<path d="M66.2401 24.2618C65.1918 24.2618 64.2484 24.0304 63.4099 23.5676C62.5713 23.0916 61.9096 22.4239 61.4248 21.5645C60.9531 20.705 60.7172 19.7133 60.7172 18.5894C60.7172 17.4656 60.9596 16.4739 61.4444 15.6144C61.9424 14.755 62.6171 14.0939 63.4688 13.6311C64.3205 13.1551 65.2704 12.9171 66.3187 12.9171C67.3669 12.9171 68.3168 13.1551 69.1685 13.6311C70.0202 14.0939 70.6884 14.755 71.1732 15.6144C71.6711 16.4739 71.9201 17.4656 71.9201 18.5894C71.9201 19.7133 71.6646 20.705 71.1536 21.5645C70.6557 22.4239 69.9743 23.0916 69.1096 23.5676C68.2579 24.0304 67.3014 24.2618 66.2401 24.2618ZM66.2401 21.8421C66.738 21.8421 67.2031 21.7231 67.6355 21.4851C68.081 21.2339 68.4348 20.8637 68.6968 20.3744C68.9589 19.8852 69.0899 19.2902 69.0899 18.5894C69.0899 17.5449 68.8147 16.7449 68.2644 16.1896C67.7272 15.6211 67.0655 15.3368 66.2794 15.3368C65.4932 15.3368 64.8315 15.6211 64.2943 16.1896C63.7702 16.7449 63.5081 17.5449 63.5081 18.5894C63.5081 19.634 63.7636 20.4406 64.2746 21.0091C64.7988 21.5645 65.4539 21.8421 66.2401 21.8421Z" fill="#101828"/>
<path d="M84.2176 13.0956V24.0833H81.4463V22.695C81.0926 23.171 80.6274 23.5478 80.0509 23.8254C79.4875 24.0899 78.8717 24.2221 78.2034 24.2221C77.3517 24.2221 76.5983 24.0436 75.9432 23.6866C75.2881 23.3164 74.7705 22.7809 74.3905 22.0801C74.0236 21.3661 73.8402 20.5199 73.8402 19.5414V13.0956H76.5918V19.1448C76.5918 20.0174 76.808 20.6918 77.2404 21.1678C77.6728 21.6306 78.2624 21.8619 79.0092 21.8619C79.7692 21.8619 80.3654 21.6306 80.7978 21.1678C81.2301 20.6918 81.4463 20.0174 81.4463 19.1448V13.0956H84.2176Z" fill="#101828"/>
<path d="M89.684 14.8013C90.0378 14.2195 90.4964 13.7633 91.0598 13.4328C91.6363 13.1022 92.2915 12.9369 93.0252 12.9369V15.8524H92.298C91.4332 15.8524 90.7781 16.0574 90.3326 16.4673C89.9002 16.8772 89.684 17.5912 89.684 18.6093V24.0833H86.9324V13.0956H89.684V14.8013Z" fill="#101828"/>
<path d="M99.1435 12.9171C99.9559 12.9171 100.67 13.0824 101.286 13.4129C101.902 13.7303 102.386 14.1468 102.74 14.6624V13.0956H105.511V24.1626C105.511 25.1807 105.308 26.0864 104.902 26.8798C104.496 27.6863 103.887 28.321 103.074 28.7838C102.262 29.2598 101.279 29.4978 100.126 29.4978C98.5801 29.4978 97.3091 29.1342 96.3133 28.4069C95.3306 27.6797 94.7737 26.6881 94.6427 25.4319H97.3746C97.5187 25.9344 97.8267 26.3311 98.2984 26.622C98.7832 26.9261 99.3662 27.0781 100.048 27.0781C100.847 27.0781 101.495 26.8335 101.993 26.3443C102.491 25.8683 102.74 25.1411 102.74 24.1626V22.4569C102.386 22.9726 101.895 23.4023 101.266 23.7461C100.65 24.0899 99.9428 24.2618 99.1435 24.2618C98.2263 24.2618 97.3877 24.0238 96.6278 23.5478C95.8678 23.0718 95.2651 22.4041 94.8196 21.5446C94.3872 20.672 94.171 19.6737 94.171 18.5498C94.171 17.4391 94.3872 16.4541 94.8196 15.5946C95.2651 14.7352 95.8612 14.0741 96.6081 13.6113C97.3681 13.1485 98.2132 12.9171 99.1435 12.9171ZM102.74 18.5894C102.74 17.9151 102.609 17.3399 102.347 16.8639C102.085 16.3747 101.731 16.0045 101.286 15.7533C100.84 15.4888 100.362 15.3566 99.851 15.3566C99.34 15.3566 98.8683 15.4822 98.4359 15.7334C98.0035 15.9847 97.6498 16.3549 97.3746 16.8441C97.1126 17.3201 96.9815 17.8887 96.9815 18.5498C96.9815 19.2109 97.1126 19.7927 97.3746 20.2951C97.6498 20.7843 98.0035 21.1612 98.4359 21.4256C98.8814 21.6901 99.3531 21.8223 99.851 21.8223C100.362 21.8223 100.84 21.6967 101.286 21.4454C101.731 21.181 102.085 20.8108 102.347 20.3348C102.609 19.8456 102.74 19.2638 102.74 18.5894Z" fill="#101828"/>
<path d="M110.95 9.40662V24.0833H108.199V9.40662H110.95Z" fill="#101828"/>
<path d="M112.961 18.5498C112.961 17.4391 113.178 16.4541 113.61 15.5946C114.055 14.7352 114.652 14.0741 115.399 13.6113C116.158 13.1485 117.004 12.9171 117.934 12.9171C118.746 12.9171 119.454 13.0824 120.057 13.4129C120.672 13.7435 121.164 14.16 121.531 14.6624V13.0956H124.302V24.0833H121.531V22.4768C121.177 22.9924 120.685 23.4222 120.057 23.7659C119.441 24.0965 118.727 24.2618 117.914 24.2618C116.997 24.2618 116.158 24.0238 115.399 23.5478C114.652 23.0718 114.055 22.4041 113.61 21.5446C113.178 20.672 112.961 19.6737 112.961 18.5498ZM121.531 18.5894C121.531 17.9151 121.4 17.3399 121.138 16.8639C120.875 16.3747 120.522 16.0045 120.076 15.7533C119.631 15.4888 119.152 15.3566 118.641 15.3566C118.13 15.3566 117.659 15.4822 117.226 15.7334C116.794 15.9847 116.44 16.3549 116.165 16.8441C115.903 17.3201 115.772 17.8887 115.772 18.5498C115.772 19.2109 115.903 19.7927 116.165 20.2951C116.44 20.7843 116.794 21.1612 117.226 21.4256C117.672 21.6901 118.144 21.8223 118.641 21.8223C119.152 21.8223 119.631 21.6967 120.076 21.4454C120.522 21.181 120.875 20.8108 121.138 20.3348C121.4 19.8456 121.531 19.2638 121.531 18.5894Z" fill="#101828"/>
<path d="M131.156 24.2618C130.265 24.2618 129.466 24.1031 128.758 23.7858C128.051 23.4552 127.487 23.0123 127.068 22.4569C126.662 21.9016 126.439 21.2868 126.4 20.6124H129.171C129.223 21.0356 129.426 21.386 129.78 21.6636C130.147 21.9413 130.599 22.0801 131.136 22.0801C131.66 22.0801 132.067 21.9743 132.355 21.7628C132.656 21.5512 132.807 21.2802 132.807 20.9496C132.807 20.5926 132.623 20.3282 132.257 20.1563C131.903 19.9712 131.333 19.7728 130.547 19.5613C129.734 19.3629 129.066 19.158 128.542 18.9464C128.031 18.7349 127.585 18.4109 127.205 17.9746C126.839 17.5383 126.655 16.9499 126.655 16.2094C126.655 15.6012 126.825 15.0459 127.166 14.5434C127.52 14.041 128.018 13.6443 128.66 13.3534C129.315 13.0626 130.081 12.9171 130.959 12.9171C132.257 12.9171 133.292 13.2477 134.065 13.9088C134.838 14.5567 135.264 15.4359 135.342 16.5466H132.709C132.669 16.1103 132.486 15.7665 132.158 15.5153C131.844 15.2508 131.418 15.1186 130.881 15.1186C130.383 15.1186 129.996 15.2112 129.721 15.3963C129.459 15.5814 129.328 15.8392 129.328 16.1698C129.328 16.54 129.511 16.8243 129.878 17.0226C130.245 17.2077 130.815 17.3994 131.588 17.5978C132.374 17.7961 133.023 18.0011 133.534 18.2126C134.045 18.4242 134.484 18.7547 134.851 19.2043C135.231 19.6406 135.427 20.2224 135.44 20.9496C135.44 21.5843 135.264 22.1528 134.91 22.6553C134.569 23.1577 134.071 23.5544 133.416 23.8453C132.774 24.1229 132.021 24.2618 131.156 24.2618Z" fill="#101828"/>
<path d="M141.866 24.2618C140.975 24.2618 140.176 24.1031 139.468 23.7858C138.76 23.4552 138.197 23.0123 137.778 22.4569C137.372 21.9016 137.149 21.2868 137.11 20.6124H139.881C139.933 21.0356 140.136 21.386 140.49 21.6636C140.857 21.9413 141.309 22.0801 141.846 22.0801C142.37 22.0801 142.776 21.9743 143.065 21.7628C143.366 21.5512 143.517 21.2802 143.517 20.9496C143.517 20.5926 143.333 20.3282 142.966 20.1563C142.613 19.9712 142.043 19.7728 141.257 19.5613C140.444 19.3629 139.776 19.158 139.252 18.9464C138.741 18.7349 138.295 18.4109 137.915 17.9746C137.548 17.5383 137.365 16.9499 137.365 16.2094C137.365 15.6012 137.535 15.0459 137.876 14.5434C138.23 14.041 138.728 13.6443 139.37 13.3534C140.025 13.0626 140.791 12.9171 141.669 12.9171C142.966 12.9171 144.002 13.2477 144.775 13.9088C145.548 14.5567 145.974 15.4359 146.052 16.5466H143.418C143.379 16.1103 143.196 15.7665 142.868 15.5153C142.554 15.2508 142.128 15.1186 141.591 15.1186C141.093 15.1186 140.706 15.2112 140.431 15.3963C140.169 15.5814 140.038 15.8392 140.038 16.1698C140.038 16.54 140.221 16.8243 140.588 17.0226C140.955 17.2077 141.525 17.3994 142.298 17.5978C143.084 17.7961 143.733 18.0011 144.244 18.2126C144.755 18.4242 145.194 18.7547 145.561 19.2043C145.941 19.6406 146.137 20.2224 146.15 20.9496C146.15 21.5843 145.974 22.1528 145.62 22.6553C145.279 23.1577 144.781 23.5544 144.126 23.8453C143.484 24.1229 142.731 24.2618 141.866 24.2618Z" fill="#101828"/>
</svg>
